<svg xmlns="http://www.w3.org/2000/svg" viewBox="0 0 32 32"><path fill="#eef5fd" d="M12,10V7a1,1,0,0,0-1-1H5A1,1,0,0,0,4,7V18H28V12a1,1,0,0,0-1-1H13A1,1,0,0,1,12,10Z"/><path fill="#6d6daa" d="M28,19H4a1,1,0,0,1-1-1V7A2,2,0,0,1,5,5h6a2,2,0,0,1,2,2v3H27a2,2,0,0,1,2,2v6A1,1,0,0,1,28,19ZM5,17H27V12H13a2,2,0,0,1-2-2V7H5Z"/><polygon fill="#ffc661" points="26 26 6 26 2 16 30 16 26 26"/><path fill="#6d6daa" d="M26,27H6a1,1,0,0,1-.93-.63l-4-10a1,1,0,0,1,.1-.93A1,1,0,0,1,2,15H30a1,1,0,0,1,.83.44,1,1,0,0,1,.1.93l-4,10A1,1,0,0,1,26,27ZM6.68,25H25.32l3.2-8h-25Z"/></svg>